<svg width="30" height="30" viewBox="0 0 30 30" fill="none" xmlns="http://www.w3.org/2000/svg">
<path d="M13.75 5.00003H5C4.33696 5.00003 3.70107 5.26342 3.23223 5.73226C2.76339 6.2011 2.5 6.83699 2.5 7.50003V25C2.5 25.6631 2.76339 26.299 3.23223 26.7678C3.70107 27.2366 4.33696 27.5 5 27.5H22.5C23.163 27.5 23.7989 27.2366 24.2678 26.7678C24.7366 26.299 25 25.6631 25 25V16.25" stroke="currentColor" stroke-width="2.5" stroke-linecap="round" stroke-linejoin="round"/>
<path d="M23.125 3.12502C23.6223 2.62774 24.2967 2.34837 25 2.34837C25.7033 2.34837 26.3777 2.62774 26.875 3.12502C27.3723 3.6223 27.6516 4.29676 27.6516 5.00002C27.6516 5.70328 27.3723 6.37774 26.875 6.87502L15 18.75L10 20L11.25 15L23.125 3.12502Z" stroke="currentColor" stroke-width="2.5" stroke-linecap="round" stroke-linejoin="round"/>
</svg>
